<svg xmlns="http://www.w3.org/2000/svg" fill="none" viewBox="0 0 16 16" height="16" width="16">
<g clip-path="url(#clip0_2008_1575)">
<path fill="white" d="M8.53602 15.6122C4.76001 15.1913 1.75172 9.82362 1.0964 6.46434C0.995667 5.94581 0.689218 4.82393 1.45269 4.73592C2.57351 4.60761 4.38146 5.72525 5.52985 6.04231C6.76625 6.38481 7.517 6.29892 7.76089 4.89922C7.97508 3.67766 7.75664 2.37976 8.00053 1.17517C8.33243 -0.467361 9.72895 -0.0845637 10.8551 0.508188C13.5983 1.95242 15.6618 5.56089 15.9502 8.59676V10.2743C15.7721 10.9434 15.6607 11.5838 15.2991 12.1883C14.876 12.8966 13.9079 13.7046 13.224 14.1775C12.1986 14.8869 11.0873 15.3779 9.85619 15.6101C9.43522 15.5762 8.94851 15.6557 8.53602 15.6101V15.6122Z"></path>
</g>
<defs>
<clipPath id="clip0_2008_1575">
<rect fill="white" height="16" width="16"></rect>
</clipPath>
</defs>
</svg>
